<svg id="Calque_1" data-name="Calque 1" xmlns="http://www.w3.org/2000/svg" viewBox="0 0 511 511"><defs><style>.cls-1{fill:#420101;}</style></defs><title>wine-icon</title><path class="cls-1" d="M199.61,300.69a37.56,37.56,0,1,0,37.56,37.56A37.6,37.6,0,0,0,199.61,300.69Zm0,55.16a17.61,17.61,0,1,1,17.6-17.61A17.62,17.62,0,0,1,199.61,355.85Z" transform="translate(0 0)"/><path class="cls-1" d="M507.21,133.62a68.37,68.37,0,0,0-19.89-11.16c9.13-12.87,14.14-33.16,5.75-63.06a10,10,0,0,0-6.91-6.91C456.26,44.1,436,49.1,423.1,58.25a68.32,68.32,0,0,0-11.16-19.91,10,10,0,0,0-12.69-2.52c-22.2,12.38-29.95,29.45-31.36,43.4-1.89-.37-3.94-.69-6.19-1a10,10,0,0,0-10.8,7.15,106.84,106.84,0,0,0-4,20.85A89.21,89.21,0,0,1,286,130.08h-2.22a10,10,0,1,0,0,20H286a110,110,0,0,0,32.91-5l1.71,1.71a47.13,47.13,0,0,1,13.81,30.8,44.23,44.23,0,0,0-24.15,15.08,44.14,44.14,0,0,0-30-16,94.09,94.09,0,0,0-45.59-52.87V10a10,10,0,0,0-10-10H174.53a10,10,0,0,0-10,10V123.71a94.34,94.34,0,0,0-50.77,83.71v4.29H10a10,10,0,0,0-10,10V366a67,67,0,0,0,56.92,66.15L57,491H41.36a10,10,0,0,0,0,20H92.57a10,10,0,1,0,0-20H76.94l-.06-58.87a66.74,66.74,0,0,0,36.9-18.49V501a10,10,0,0,0,10,10h151.7a10,10,0,0,0,10-10V316.38a43.88,43.88,0,0,0,17.73,7.08,44.19,44.19,0,1,0,82.65,0A44.14,44.14,0,0,0,420,264.18a44.14,44.14,0,0,0,30.3-67.11q4.77-1,9.84-2.41a10,10,0,0,0,7.15-10.8c-.27-2.25-.6-4.31-1-6.19,14-1.41,31-9.16,43.39-31.36A10,10,0,0,0,507.21,133.62Zm-157.75-3.75a39.69,39.69,0,0,0,7,12.43A41.85,41.85,0,0,0,375.85,155a78.67,78.67,0,0,1-22.74,11.72,66.78,66.78,0,0,0-14.62-30A107,107,0,0,0,349.46,129.87Zm29.24,62.76a44.57,44.57,0,0,0-11.41-9.91,98.15,98.15,0,0,0,23-13.65,49.22,49.22,0,0,0,2.37,6.11,43.29,43.29,0,0,0,2.68,4.84A44.5,44.5,0,0,0,378.7,192.63ZM133.8,265.48H265.48V411H133.74Zm210.69-69.14a24.23,24.23,0,1,1-24.23,24.23A24.26,24.26,0,0,1,344.49,196.34ZM300.3,220.57a24.23,24.23,0,1,1-24.23-24.23A24.26,24.26,0,0,1,300.3,220.57ZM214.71,20V84.41h-30.2V20Zm-36.2,119.2a10,10,0,0,0,6-9.15V104.37h30.2V130a10,10,0,0,0,6,9.15A74.21,74.21,0,0,1,260,179.41a44.15,44.15,0,0,0-20.38,66.11H133.8V221.69c0-.35,0-.7-.06-1.05V207.42A74.39,74.39,0,0,1,178.51,139.16Zm-64.73,92.51.06,60.24H20V231.67ZM66.9,413A47,47,0,0,1,20,366V311.87h93.88V358a9.28,9.28,0,0,0-.06,1.06v9.2A47,47,0,0,1,66.9,413ZM133.74,491V431H265.48v25.14h-52.9a10,10,0,0,0,0,20h52.9v15ZM286.05,279.85a24.23,24.23,0,1,1,24.23,24.23A24.26,24.26,0,0,1,286.05,279.85Zm58.44,83.48a24.23,24.23,0,1,1,24.23-24.23A24.26,24.26,0,0,1,344.49,363.33Zm34.21-59.25a24.23,24.23,0,1,1,24.23-24.23A24.26,24.26,0,0,1,378.7,304.08Zm34.22-59.28a24.23,24.23,0,1,1,24.22-24.23A24.25,24.25,0,0,1,412.92,244.8ZM454.67,157a9.87,9.87,0,0,0-12,4.43,10.05,10.05,0,0,0,1.52,11.89,18,18,0,0,1,1.66,4.31c-1,.2-2.05.38-3,.53q-10.85,1.69-18.36-.24l-.65-.18a22.2,22.2,0,0,1-4.3-1.66,19.33,19.33,0,0,1-8.76-9.38c-3.89-8.29-3.05-17.82-3.05-17.86a10,10,0,0,0-9.88-11,9,9,0,0,0-1,.06c-.17,0-16.87,1.45-25.07-8.45-6-7.3-5.83-19-3.76-29.71a19,19,0,0,1,4.31,1.66,10,10,0,0,0,16.29-10.52,28.32,28.32,0,0,1-.38-12.31C389.58,70.82,394,64,401.32,58.3c7.13,13.12,4.55,23.11,4.41,23.6a10,10,0,0,0,19.19,5.5c.85-2.84,9.27-26.48,50.34-17.1,9.37,41.06-14.27,49.49-17.11,50.34a10,10,0,0,0,5.51,19.19c.49-.13,10.47-2.72,23.59,4.4C473.25,162,457,157.71,454.67,157Z" transform="translate(0 0)"/><path class="cls-1" d="M175.66,456.11a10,10,0,1,0,7.05,2.92A10,10,0,0,0,175.66,456.11Z" transform="translate(0 0)"/></svg>
